<svg xmlns="http://www.w3.org/2000/svg" viewBox="0 0 16.787 20.928" fill="currentColor">
  <path d="M2.998 20.928h12.647c.43 0 .78-.342.78-.782a.81.81 0 0 0-.546-.751c-1.23-.489-1.484-2.08-.274-3.301.372-.371.82-.85.82-1.826V3.066C16.426 1.036 15.42 0 13.399 0H3.028C1.005 0 0 1.025 0 3.066V17.91c0 2.012 1.016 3.018 2.998 3.018m-1.426-5.645V3.096c0-.977.518-1.524 1.524-1.524H13.32c1.016 0 1.534.547 1.534 1.524v10.957c0 .527-.303.83-.85.83H3.164c-.635 0-1.162.137-1.592.4m1.514 4.073c-.986 0-1.514-.528-1.514-1.456 0-.878.625-1.445 1.602-1.445h10.02c.126 0 .243-.01.341-.03-.459 1.016-.38 2.09.137 2.93Zm-.361-3.633h1.279V1.19h-1.28Z" fill-opacity="0.85"/>
</svg>
